<?xml version="1.0" encoding="UTF-8" standalone="no"?>
<svg width="28px" height="31px" viewBox="0 0 28 31" version="1.1" xmlns="http://www.w3.org/2000/svg" xmlns:xlink="http://www.w3.org/1999/xlink" xmlns:sketch="http://www.bohemiancoding.com/sketch/ns">
    <!-- Generator: Sketch 3.3.3 (12072) - http://www.bohemiancoding.com/sketch -->
    <title>Untitled 4</title>
    <desc>Created with Sketch.</desc>
    <defs></defs>
    <g id="Page-1" stroke="none" stroke-width="1" fill="none" fill-rule="evenodd" sketch:type="MSPage">
        <path d="M2.142857,28.142857 L6.964286,28.142857 L6.964286,23.321429 L2.142857,23.321429 L2.142857,28.142857 Z M8.035714,28.142857 L13.392857,28.142857 L13.392857,23.321429 L8.035714,23.321429 L8.035714,28.142857 Z M2.142857,22.25 L6.964286,22.25 L6.964286,16.892857 L2.142857,16.892857 L2.142857,22.25 Z M8.035714,22.25 L13.392857,22.25 L13.392857,16.892857 L8.035714,16.892857 L8.035714,22.25 Z M2.142857,15.821429 L6.964286,15.821429 L6.964286,11 L2.142857,11 L2.142857,15.821429 Z M14.464286,28.142857 L19.821429,28.142857 L19.821429,23.321429 L14.464286,23.321429 L14.464286,28.142857 Z M8.035714,15.821429 L13.392857,15.821429 L13.392857,11 L8.035714,11 L8.035714,15.821429 Z M20.892857,28.142857 L25.714286,28.142857 L25.714286,23.321429 L20.892857,23.321429 L20.892857,28.142857 Z M14.464286,22.25 L19.821429,22.25 L19.821429,16.892857 L14.464286,16.892857 L14.464286,22.25 Z M8.571429,7.785714 L8.571429,2.964286 C8.571429,2.819196 8.518415,2.693638 8.412388,2.587612 C8.306362,2.481585 8.180804,2.428571 8.035714,2.428571 L6.964286,2.428571 C6.819196,2.428571 6.693638,2.481585 6.587612,2.587612 C6.481585,2.693638 6.428571,2.819196 6.428571,2.964286 L6.428571,7.785714 C6.428571,7.930804 6.481585,8.056362 6.587612,8.162388 C6.693638,8.268415 6.819196,8.321429 6.964286,8.321429 L8.035714,8.321429 C8.180804,8.321429 8.306362,8.268415 8.412388,8.162388 C8.518415,8.056362 8.571429,7.930804 8.571429,7.785714 L8.571429,7.785714 Z M20.892857,22.25 L25.714286,22.25 L25.714286,16.892857 L20.892857,16.892857 L20.892857,22.25 Z M14.464286,15.821429 L19.821429,15.821429 L19.821429,11 L14.464286,11 L14.464286,15.821429 Z M20.892857,15.821429 L25.714286,15.821429 L25.714286,11 L20.892857,11 L20.892857,15.821429 Z M21.428571,7.785714 L21.428571,2.964286 C21.428571,2.819196 21.375558,2.693638 21.269531,2.587612 C21.163504,2.481585 21.037946,2.428571 20.892857,2.428571 L19.821429,2.428571 C19.676339,2.428571 19.550781,2.481585 19.444754,2.587612 C19.338728,2.693638 19.285714,2.819196 19.285714,2.964286 L19.285714,7.785714 C19.285714,7.930804 19.338728,8.056362 19.444754,8.162388 C19.550781,8.268415 19.676339,8.321429 19.821429,8.321429 L20.892857,8.321429 C21.037946,8.321429 21.163504,8.268415 21.269531,8.162388 C21.375558,8.056362 21.428571,7.930804 21.428571,7.785714 L21.428571,7.785714 Z M27.857143,6.714286 L27.857143,28.142857 C27.857143,28.723214 27.645089,29.225446 27.220982,29.649554 C26.796875,30.073661 26.294643,30.285714 25.714286,30.285714 L2.142857,30.285714 C1.5625,30.285714 1.060268,30.073661 0.636161,29.649554 C0.212054,29.225446 0,28.723214 0,28.142857 L0,6.714286 C0,6.133929 0.212054,5.631696 0.636161,5.207589 C1.060268,4.783482 1.5625,4.571429 2.142857,4.571429 L4.285714,4.571429 L4.285714,2.964286 C4.285714,2.227679 4.547991,1.597098 5.072545,1.072545 C5.597098,0.547991 6.227679,0.285714 6.964286,0.285714 L8.035714,0.285714 C8.772321,0.285714 9.402902,0.547991 9.927455,1.072545 C10.452009,1.597098 10.714286,2.227679 10.714286,2.964286 L10.714286,4.571429 L17.142857,4.571429 L17.142857,2.964286 C17.142857,2.227679 17.405134,1.597098 17.929688,1.072545 C18.454241,0.547991 19.084821,0.285714 19.821429,0.285714 L20.892857,0.285714 C21.629464,0.285714 22.260045,0.547991 22.784598,1.072545 C23.309152,1.597098 23.571429,2.227679 23.571429,2.964286 L23.571429,4.571429 L25.714286,4.571429 C26.294643,4.571429 26.796875,4.783482 27.220982,5.207589 C27.645089,5.631696 27.857143,6.133929 27.857143,6.714286 L27.857143,6.714286 Z" id="Shape" fill="#FFFFFF" sketch:type="MSShapeGroup"></path>
    </g>
</svg>