<?xml version="1.0" encoding="UTF-8" standalone="no"?>
<svg width="136px" height="136px" viewBox="0 0 136 136" version="1.1" xmlns="http://www.w3.org/2000/svg" xmlns:xlink="http://www.w3.org/1999/xlink" xmlns:sketch="http://www.bohemiancoding.com/sketch/ns">
    <!-- Generator: Sketch 3.3.3 (12072) - http://www.bohemiancoding.com/sketch -->
    <title>Untitled 5</title>
    <desc>Created with Sketch.</desc>
    <defs>
        <filter x="-50%" y="-50%" width="200%" height="200%" filterUnits="objectBoundingBox" id="filter-1">
            <feMorphology radius="6" in="SourceAlpha" operator="dilate" result="shadowSpreadOuter1"></feMorphology>
            <feOffset dx="0" dy="0" in="shadowSpreadOuter1" result="shadowOffsetOuter1"></feOffset>
            <feGaussianBlur stdDeviation="6" in="shadowOffsetOuter1" result="shadowBlurOuter1"></feGaussianBlur>
            <feColorMatrix values="0 0 0 0 0   0 0 0 0 0   0 0 0 0 0  0 0 0 0.35 0" in="shadowBlurOuter1" type="matrix" result="shadowMatrixOuter1"></feColorMatrix>
            <feMerge>
                <feMergeNode in="shadowMatrixOuter1"></feMergeNode>
                <feMergeNode in="SourceGraphic"></feMergeNode>
            </feMerge>
        </filter>
    </defs>
    <g id="Page-1" stroke="none" stroke-width="1" fill="none" fill-rule="evenodd" sketch:type="MSPage">
        <g id="icon_close2" sketch:type="MSLayerGroup" transform="translate(18.000000, 18.000000)">
            <g id="Page-1" sketch:type="MSShapeGroup">
                <g id="Imported-Layers">
                    <path d="M100,50 C100,77.614 77.614,100 50,100 C22.386,100 0,77.614 0,50 C0,22.386 22.386,0 50,0 C77.614,0 100,22.386 100,50" id="Fill-1" fill="#FFFFFF" filter="url(#filter-1)"></path>
                    <path d="M55.657,50 L72.829,32.828 C74.391,31.267 74.391,28.733 72.829,27.172 C71.266,25.609 68.734,25.609 67.171,27.172 L50,44.343 L32.829,27.172 C31.266,25.609 28.734,25.609 27.171,27.172 C25.609,28.733 25.609,31.267 27.171,32.828 L44.343,50 L27.171,67.172 C25.609,68.733 25.609,71.267 27.171,72.828 C27.953,73.609 28.976,74 30,74 C31.024,74 32.047,73.609 32.829,72.828 L50,55.657 L67.171,72.828 C67.953,73.609 68.976,74 70,74 C71.024,74 72.047,73.609 72.829,72.828 C74.391,71.267 74.391,68.733 72.829,67.172 L55.657,50" id="Fill-3" fill="#57514E"></path>
                </g>
            </g>
        </g>
    </g>
</svg>