<?xml version="1.0" encoding="UTF-8" standalone="no"?>
<svg width="20px" height="20px" viewBox="0 0 20 20" version="1.1" xmlns="http://www.w3.org/2000/svg" xmlns:xlink="http://www.w3.org/1999/xlink">
    <!-- Generator: Sketch 3.8.2 (29753) - http://www.bohemiancoding.com/sketch -->
    <title>Slice 1</title>
    <desc>Created with Sketch.</desc>
    <defs></defs>
    <g id="Page-1" stroke="none" stroke-width="1" fill="none" fill-rule="evenodd">
        <path d="M7.93,11.5 L12.07,11.5 L10,5.98 L7.93,11.5 Z M18,0 L2,0 C0.9,0 0,0.9 0,2 L0,18 C0,19.1 0.9,20 2,20 L18,20 C19.1,20 20,19.1 20,18 L20,2 C20,0.9 19.1,0 18,0 L18,0 Z M13.95,16.5 L12.81,13.5 L7.17,13.5 L6.05,16.5 L3.96,16.5 L9.07,3.5 L10.93,3.5 L16.04,16.5 L13.95,16.5 L13.95,16.5 Z" id="Shape" fill="#FFFFFF"></path>
    </g>
</svg>