<?xml version="1.0" encoding="UTF-8" standalone="no"?>
<svg width="38px" height="38px" viewBox="0 0 38 38" version="1.1" xmlns="http://www.w3.org/2000/svg" xmlns:xlink="http://www.w3.org/1999/xlink">
    <!-- Generator: Sketch 3.8.2 (29753) - http://www.bohemiancoding.com/sketch -->
    <title>Slice 1</title>
    <desc>Created with Sketch.</desc>
    <defs>
        <polygon id="path-1" points="38 18.9999736 38 0 0 0 0 18.9999736 0 37.9999473 38 37.9999473"></polygon>
        <polygon id="path-3" points="38 18.9999736 38 0 0 0 0 18.9999736 0 37.9999473 38 37.9999473"></polygon>
    </defs>
    <g id="Page-1" stroke="none" stroke-width="1" fill="none" fill-rule="evenodd">
        <g id="icon_reload_btn">
            <g id="Page-1">
                <g id="icon_reload_btn">
                    <g id="Page-1">
                        <g id="Group">
                            <g id="mask-2">
                                <polygon id="path-1" points="38 18.9999736 38 0 0 0 0 18.9999736 0 37.9999473 38 37.9999473"></polygon>
                            </g>
                            <g id="Fill-1-Clipped">
                                <g id="mask-2">
                                    <polygon id="path-1" points="38 18.9999736 38 0 0 0 0 18.9999736 0 37.9999473 38 37.9999473"></polygon>
                                </g>
                                <g id="Oval-1-Clipped">
                                    <mask id="mask-2" fill="white">
                                        <use xlink:href="#path-1"></use>
                                    </mask>
                                    <g id="path-1"></g>
                                    <circle id="Oval-1" fill="#039BE5" mask="url(#mask-2)" cx="19" cy="19" r="17.8125"></circle>
                                </g>
                                <g>
                                    <mask id="mask-4" fill="white">
                                        <use xlink:href="#path-3"></use>
                                    </mask>
                                    <g id="path-1"></g>
                                    <path d="M19,29.1747111 C13.3147777,29.1747111 8.68933333,24.5497944 8.68933333,18.8651 C8.68933333,13.17935 13.31425,8.55390556 18.9994723,8.55390556 L19,8.55390556 L19,5.61761389 C19,5.02148889 19.3807917,4.74994723 19.7349306,4.74994723 C19.8758473,4.74994723 20.0935556,4.79296111 20.33475,4.99457223 L25.0712917,8.95712777 C25.32225,9.16744723 25.4660694,9.46590556 25.4660694,9.77703056 C25.4660694,10.0889472 25.32225,10.3876694 25.0712917,10.5982528 L20.33475,14.5616 C20.0940833,14.7632111 19.8758473,14.806225 19.7349306,14.806225 C19.3807917,14.806225 19,14.5341556 19,13.9385583 L19,11.0020028 L18.9994723,11.0020028 C14.6637777,11.0020028 11.1358472,14.5296694 11.1358472,18.8664194 C11.1358472,23.2021139 14.6637777,26.7295167 18.9994723,26.7295167 C23.3356944,26.7295167 26.863625,23.2021139 26.863625,18.8664194 C26.863625,18.3019611 26.8034583,17.7377667 26.6849723,17.1915167 C26.5416806,16.5315306 26.961,15.879725 27.6209861,15.7364333 C28.2854583,15.5934056 28.9333056,16.0129889 29.0763333,16.672975 C29.2317639,17.38785 29.3106667,18.1256833 29.3106667,18.8651 C29.3106667,24.5492667 24.6852223,29.1747111 19,29.1747111 M19,-5.27777777e-05 C8.50672223,-5.27777777e-05 0,8.50666944 0,18.9999473 C0,29.4934889 8.50672223,37.9999473 19,37.9999473 C29.4935417,37.9999473 38,29.4934889 38,18.9999473 C38,8.50666944 29.4935417,-5.27777777e-05 19,-5.27777777e-05" id="Fill-1" fill="#FFFFFF" mask="url(#mask-4)"></path>
                                </g>
                            </g>
                        </g>
                    </g>
                </g>
            </g>
        </g>
    </g>
</svg>