<svg width="24" height="24" viewBox="0 0 24 24" fill="none" xmlns="http://www.w3.org/2000/svg"><rect width="24" height="24" fill="none" rx="0" ry="0"></rect><path fill-rule="evenodd" clip-rule="evenodd" d="M6.12817 20.5H10.6282C11.4582 20.5 12.1282 19.83 12.1282 19C12.1282 18.17 11.4582 17.5 10.6282 17.5H6.12817C5.29817 17.5 4.62817 16.83 4.62817 16V8C4.62817 7.17 5.29817 6.5 6.12817 6.5H14.1282C14.9582 6.5 15.6282 7.17 15.6282 8V10.38L14.1882 8.94006C13.6082 8.35006 12.6582 8.36006 12.0682 8.94006C11.4782 9.52006 11.4782 10.4701 12.0682 11.0601L16.0166 15.0084C16.2802 15.2989 16.6565 15.4852 17.0772 15.4992C17.0942 15.4998 17.1112 15.5001 17.1282 15.5001C17.1467 15.5001 17.1652 15.4997 17.1837 15.499C17.602 15.4839 17.976 15.2984 18.2386 15.0097L22.1882 11.0601C22.7782 10.4801 22.7682 9.53006 22.1882 8.94006C21.6082 8.35006 20.6582 8.35006 20.0682 8.94006L18.6282 10.3801V8C18.6282 5.52 16.6082 3.5 14.1282 3.5H6.12817C3.64817 3.5 1.62817 5.52 1.62817 8V16C1.62817 18.48 3.64817 20.5 6.12817 20.5Z" fill="#ffffff"></path></svg>