<?xml version="1.0" encoding="utf-8" ?>
<svg xmlns="http://www.w3.org/2000/svg" version="1.1" width="555" height="555" viewBox="0 0 555 555">
  <rect x="0" y="0" width="555" height="555" fill="#ffffff" stroke="none"></rect>
  <g transform="scale(15,15) translate(4,4)" fill="#000000" stroke="none">
    <path d="M0,0 h7 v7 h-7 v-7 M1,6 h5 v-5 h-5 v5 M2,2 h3 v3 h-3 v-3 M22,0 h7 v7 h-7 v-7 M23,6 h5 v-5 h-5 v5 M24,2 h3 v3 h-3 v-3 M0,22 h7 v7 h-7 v-7 M1,28 h5 v-5 h-5 v5 M2,24 h3 v3 h-3 v-3 M8,0 h2 v1 h-1 v1 h2 v1 h1 v1 h-2 v-1 h-2 v-3 M13,0 h3 v2 h-1 v1 h1 v2 h-1 v-1 h-1 v-1 h-2 v-1 h-1 v-1 h2 v-1 M17,0 h2 v1 h-1 v1 h-1 v-2 M19,1 h2 v4 h-3 v-1 h1 v-1 h1 v-1 h-1 v-1 M17,3 h1 v1 h-1 v-1 M8,4 h2 v1 h2 v1 h-1 v1 h-1 v-1 h-1 v-1 h-1 v-1 M13,4 h1 v1 h1 v3 h4 v-1 h1 v1 h2 v1 h-2 v1 h-3 v-1 h-2 v2 h1 v1 h-1 v1 h-2 v-1 h1 v-3 h-2 v-1 h2 v-2 h-1 v-2 M8,6 h1 v1 h-1 v-1 M12,6 h1 v1 h-1 v-1 M16,6 h1 v1 h-1 v-1 M18,6 h1 v1 h-1 v-1 M20,6 h1 v1 h-1 v-1 M11,7 h1 v1 h-1 v-1 M0,8 h1 v1 h-1 v-1 M3,8 h6 v1 h1 v1 h1 v-1 h1 v1 h1 v1 h-1 v1 h-1 v-1 h-3 v-1 h-1 v-1 h-1 v1 h1 v1 h-1 v1 h1 v-1 h1 v2 h-2 v1 h-1 v1 h-1 v-2 h-1 v-1 h-1 v-2 h-1 v-1 h2 v1 h1 v1 h1 v-1 h-1 v-1 h-1 v-1 M24,8 h1 v2 h-2 v-1 h1 v-1 M26,8 h3 v1 h-1 v1 h-1 v1 h-1 v-3 M21,10 h1 v1 h1 v2 h3 v1 h1 v2 h-1 v-1 h-1 v1 h-1 v-1 h-3 v3 h1 v2 h1 v-1 h1 v1 h1 v-1 h2 v1 h1 v1 h-2 v6 h1 v1 h-3 v1 h-1 v-3 h2 v-1 h-5 v1 h-1 v1 h-1 v-2 h1 v-1 h-1 v-1 h1 v-1 h1 v-2 h1 v-1 h-2 v3 h-2 v2 h1 v1 h-1 v2 h-1 v-2 h-1 v-1 h1 v-1 h-1 v-1 h1 v-1 h2 v-2 h-1 v1 h-2 v-1 h1 v-1 h1 v-1 h1 v1 h1 v-2 h1 v-1 h-1 v1 h-1 v-1 h-1 v-2 h2 v1 h2 v-1 h1 v-1 h-1 v-2 M0,11 h1 v1 h1 v1 h1 v1 h-2 v-1 h-1 v-2 M17,11 h3 v1 h1 v1 h-2 v-1 h-2 v-1 M24,11 h1 v1 h-1 v-1 M28,11 h1 v5 h-1 v-2 h-1 v-1 h1 v-2 M10,12 h1 v1 h-1 v-1 M8,13 h2 v1 h1 v1 h1 v-2 h1 v2 h1 v-1 h2 v1 h-1 v1 h-5 v-1 h-1 v-1 h-1 v-1 M6,14 h2 v1 h1 v1 h-2 v-1 h-1 v-1 M0,15 h1 v1 h1 v-1 h2 v2 h1 v1 h-1 v1 h-1 v1 h1 v1 h-4 v-6 M16,15 h1 v1 h-1 v-1 M6,16 h1 v1 h-1 v-1 M15,16 h1 v1 h-1 v-1 M23,16 h1 v1 h-1 v-1 M7,17 h1 v1 h-1 v-1 M9,17 h2 v4 h-1 v-1 h-1 v-1 h1 v-1 h-1 v-1 M24,17 h4 v1 h-3 v1 h-1 v-2 M5,18 h2 v1 h-1 v1 h-2 v-1 h1 v-1 M13,18 h2 v1 h-1 v6 h-2 v2 h-1 v1 h-2 v-2 h-1 v-5 h-2 v-1 h1 v-1 h1 v1 h1 v3 h1 v1 h1 v-1 h2 v-1 h-2 v-1 h2 v-1 h-1 v-1 h1 v-1 M28,18 h1 v1 h-1 v-1 M24,21 h-3 v3 h3 v-3 M10,22 h1 v1 h-1 v-1 M22,22 h1 v1 h-1 v-1 M27,23 h1 v3 h1 v2 h-1 v-1 h-1 v-4 M11,25 h-1 v1 h1 v-1 M14,25 h1 v2 h1 v1 h-2 v-3 M20,26 h1 v1 h-1 v-1 M8,28 h1 v1 h-1 v-1 M11,28 h3 v1 h-3 v-1 M16,28 h3 v1 h-3 v-1 M20,28 h2 v1 h-2 v-1"></path>
  </g>
</svg>
